<?xml version="1.0" encoding="iso-8859-1"?>
<!-- Generator: Adobe Illustrator 19.0.0, SVG Export Plug-In . SVG Version: 6.00 Build 0)  -->
<svg version="1.1" id="Capa_1" xmlns="http://www.w3.org/2000/svg" xmlns:xlink="http://www.w3.org/1999/xlink" x="0px" y="0px"
	 viewBox="0 0 511.788 511.788" style="enable-background:new 0 0 511.788 511.788;" xml:space="preserve">
<g>
	<circle style="fill:#A4C2F7;" cx="255.738" cy="255.907" r="247.172"/>
	
		<linearGradient id="SVGID_1_" gradientUnits="userSpaceOnUse" x1="-49.0261" y1="652.4612" x2="-48.2754" y2="651.7909" gradientTransform="matrix(441.3793 0 0 -494.3448 21729.1758 322631.0313)">
		<stop  offset="0" style="stop-color:#D4E1F4"/>
		<stop  offset="0.1717" style="stop-color:#D4E1F4"/>
		<stop  offset="0.2" style="stop-color:#D4E1F4"/>
		<stop  offset="0.2001" style="stop-color:#DAE4F4"/>
		<stop  offset="0.2007" style="stop-color:#EBEBF4"/>
		<stop  offset="0.2014" style="stop-color:#F6F1F4"/>
		<stop  offset="0.2023" style="stop-color:#FDF4F4"/>
		<stop  offset="0.205" style="stop-color:#FFF5F4"/>
		<stop  offset="0.2522" style="stop-color:#FFF5F4"/>
		<stop  offset="0.26" style="stop-color:#FFF5F4"/>
		<stop  offset="0.26" style="stop-color:#D4E1F4"/>
		<stop  offset="0.3974" style="stop-color:#D4E1F4"/>
		<stop  offset="0.42" style="stop-color:#D4E1F4"/>
		<stop  offset="0.4201" style="stop-color:#DAE4F4"/>
		<stop  offset="0.4207" style="stop-color:#EBEBF4"/>
		<stop  offset="0.4214" style="stop-color:#F6F1F4"/>
		<stop  offset="0.4223" style="stop-color:#FDF4F4"/>
		<stop  offset="0.425" style="stop-color:#FFF5F4"/>
		<stop  offset="0.4894" style="stop-color:#FFF5F4"/>
		<stop  offset="0.5" style="stop-color:#FFF5F4"/>
		<stop  offset="0.5" style="stop-color:#F9F2F4"/>
		<stop  offset="0.5001" style="stop-color:#E8EBF4"/>
		<stop  offset="0.5003" style="stop-color:#DDE5F4"/>
		<stop  offset="0.5005" style="stop-color:#D6E2F4"/>
		<stop  offset="0.501" style="stop-color:#D4E1F4"/>
		<stop  offset="0.7062" style="stop-color:#D4E1F4"/>
		<stop  offset="0.74" style="stop-color:#D4E1F4"/>
		<stop  offset="0.741" style="stop-color:#FFF5F4"/>
		<stop  offset="0.8346" style="stop-color:#FFF5F4"/>
		<stop  offset="0.85" style="stop-color:#FFF5F4"/>
		<stop  offset="0.851" style="stop-color:#D4E1F4"/>
	</linearGradient>
	<ellipse style="fill:url(#SVGID_1_);" cx="255.738" cy="255.907" rx="220.69" ry="247.172"/>
	<path style="fill:#E3E7F2;" d="M324.401,324.57c-6.544,6.527-13.988,12.084-22.106,16.504l72.003,131.711
		c41.509-22.685,75.633-56.809,98.318-98.318l-131.711-72.003C336.485,310.581,330.927,318.025,324.401,324.57L324.401,324.57z"/>
	<circle style="fill:#7FACFA;" cx="255.738" cy="255.907" r="97.103"/>
	<ellipse style="fill:#A4C2F7;" cx="242.497" cy="255.907" rx="83.862" ry="97.103"/>
	<path style="fill:#ECECEC;" d="M249.236,502.614C130.37,498.75,35.049,389.696,35.049,255.629
		c0-132.14,92.584-240.054,209.061-246.828l-0.011-0.067C111.252,14.948,7.146,125.179,8.528,258.164
		c1.382,132.985,107.757,241.028,240.704,244.48L249.236,502.614z"/>
	<circle style="fill:#7FACFA;" cx="255.738" cy="255.907" r="26.483"/>
	<path style="fill:#E3E7F2;" d="M187.076,187.245c6.544-6.527,13.988-12.084,22.106-16.504L137.179,39.03
		C95.67,61.715,61.546,95.839,38.861,137.348l131.711,72.003C174.992,201.233,180.549,193.789,187.076,187.245z"/>
	<g>
		<path style="fill:#428DFF;" d="M255.738,511.787C133.669,511.707,28.654,425.413,4.912,305.676s40.4-239.573,153.203-286.224
			s242.851-7.126,310.618,94.405s54.378,236.792-31.977,323.068C388.776,484.963,323.633,511.904,255.738,511.787z M255.738,17.675
			C142.088,17.749,44.316,98.093,22.212,209.573s37.616,223.051,142.64,266.484s226.103,6.633,289.195-87.897
			s50.626-220.462-29.774-300.788C379.603,42.646,318.951,17.563,255.738,17.675z"/>
		<path style="fill:#428DFF;" d="M255.738,361.787c-50.51-0.035-93.962-35.745-103.784-85.291s16.722-99.131,63.399-118.432
			s100.488-2.944,128.527,39.069c28.039,42.013,22.497,97.982-13.237,133.68C310.79,350.692,283.833,361.839,255.738,361.787z
			 M255.738,167.674c-42.092,0.031-78.301,29.79-86.484,71.078c-8.184,41.289,13.937,82.609,52.835,98.692
			c38.898,16.083,83.74,2.451,107.105-32.56s18.745-81.652-11.033-111.4C301.614,176.921,279.15,167.633,255.738,167.674
			L255.738,167.674z"/>
		<path style="fill:#428DFF;" d="M255.738,291.218c-14.282,0.002-27.158-8.601-32.623-21.796
			c-5.465-13.195-2.443-28.383,7.658-38.48c13.969-13.345,35.962-13.345,49.931,0l0,0c10.096,10.099,13.116,25.284,7.652,38.477
			C282.891,282.612,270.018,291.215,255.738,291.218z M255.738,238.252c-7.141-0.001-13.579,4.301-16.312,10.898
			c-2.733,6.597-1.221,14.191,3.829,19.24c6.984,6.672,17.981,6.672,24.965,0c3.312-3.31,5.172-7.8,5.172-12.483
			s-1.861-9.173-5.172-12.483l0,0C264.918,240.102,260.423,238.239,255.738,238.252L255.738,238.252z"/>
		<path style="fill:#428DFF;" d="M374.299,481.614c-0.84-0.002-1.676-0.121-2.483-0.353c-2.248-0.661-4.142-2.186-5.267-4.241
			l-72-131.715c-2.337-4.275-0.767-9.636,3.509-11.974c14.856-8.052,27.052-20.247,35.103-35.103
			c2.341-4.272,7.698-5.842,11.974-3.509l131.716,72c2.057,1.123,3.583,3.018,4.242,5.268c0.658,2.25,0.394,4.669-0.733,6.723
			c-23.499,42.982-58.837,78.319-101.819,101.819C377.241,481.243,375.781,481.616,374.299,481.614L374.299,481.614z
			 M314.109,344.269l63.62,116.388c34.042-20.272,62.487-48.717,82.759-82.759L344.1,314.278
			C336.26,326.222,326.052,336.43,314.109,344.269L314.109,344.269z"/>
		<path style="fill:#428DFF;" d="M170.566,218.174c-1.476,0.001-2.929-0.37-4.224-1.078l-131.716-72
			c-2.057-1.123-3.583-3.018-4.242-5.268c-0.658-2.25-0.394-4.669,0.733-6.723c23.499-42.982,58.837-78.32,101.819-101.819
			c2.055-1.127,4.474-1.391,6.723-0.733c2.25,0.658,4.145,2.184,5.268,4.242l72,131.716c2.337,4.275,0.767,9.636-3.509,11.974
			c-14.856,8.052-27.052,20.247-35.103,35.103C176.766,216.42,173.794,218.179,170.566,218.174z M50.988,133.916l116.388,63.62
			c7.84-11.944,18.048-22.151,29.991-29.991l-63.62-116.388C99.706,71.428,71.26,99.874,50.988,133.916L50.988,133.916z"/>
	</g>
</g>
<g>
</g>
<g>
</g>
<g>
</g>
<g>
</g>
<g>
</g>
<g>
</g>
<g>
</g>
<g>
</g>
<g>
</g>
<g>
</g>
<g>
</g>
<g>
</g>
<g>
</g>
<g>
</g>
<g>
</g>
</svg>
