<?xml version="1.0" encoding="UTF-8" standalone="no"?>
<!DOCTYPE svg PUBLIC "-//W3C//DTD SVG 1.1//EN" "http://www.w3.org/Graphics/SVG/1.1/DTD/svg11.dtd">
<svg width="100%" height="100%" viewBox="0 0 512 512" version="1.1" xmlns="http://www.w3.org/2000/svg" xmlns:xlink="http://www.w3.org/1999/xlink" xml:space="preserve" xmlns:serif="http://www.serif.com/" style="fill-rule:evenodd;clip-rule:evenodd;stroke-linejoin:round;stroke-miterlimit:2;">
    <path d="M197.332,170.668L37.332,170.668C16.746,170.668 0,153.922 0,133.332L0,37.332C0,16.746 16.746,0 37.332,0L197.332,0C217.922,0 234.668,16.746 234.668,37.332L234.668,133.332C234.668,153.922 217.922,170.668 197.332,170.668ZM37.332,32C34.391,32 32,34.391 32,37.332L32,133.332C32,136.277 34.391,138.668 37.332,138.668L197.332,138.668C200.277,138.668 202.668,136.277 202.668,133.332L202.668,37.332C202.668,34.391 200.277,32 197.332,32L37.332,32Z" style="fill:white;fill-rule:nonzero;"/>
    <path d="M197.332,512L37.332,512C16.746,512 0,495.254 0,474.668L0,250.668C0,230.078 16.746,213.332 37.332,213.332L197.332,213.332C217.922,213.332 234.668,230.078 234.668,250.668L234.668,474.668C234.668,495.254 217.922,512 197.332,512ZM37.332,245.332C34.391,245.332 32,247.723 32,250.668L32,474.668C32,477.609 34.391,480 37.332,480L197.332,480C200.277,480 202.668,477.609 202.668,474.668L202.668,250.668C202.668,247.723 200.277,245.332 197.332,245.332L37.332,245.332Z" style="fill:white;fill-rule:nonzero;"/>
    <path d="M474.668,512L314.668,512C294.078,512 277.332,495.254 277.332,474.668L277.332,378.668C277.332,358.078 294.078,341.332 314.668,341.332L474.668,341.332C495.254,341.332 512,358.078 512,378.668L512,474.668C512,495.254 495.254,512 474.668,512ZM314.668,373.332C311.723,373.332 309.332,375.723 309.332,378.668L309.332,474.668C309.332,477.609 311.723,480 314.668,480L474.668,480C477.609,480 480,477.609 480,474.668L480,378.668C480,375.723 477.609,373.332 474.668,373.332L314.668,373.332Z" style="fill:white;fill-rule:nonzero;"/>
    <path d="M474.668,298.668L314.668,298.668C294.078,298.668 277.332,281.922 277.332,261.332L277.332,37.332C277.332,16.746 294.078,0 314.668,0L474.668,0C495.254,0 512,16.746 512,37.332L512,261.332C512,281.922 495.254,298.668 474.668,298.668ZM314.668,32C311.723,32 309.332,34.391 309.332,37.332L309.332,261.332C309.332,264.277 311.723,266.668 314.668,266.668L474.668,266.668C477.609,266.668 480,264.277 480,261.332L480,37.332C480,34.391 477.609,32 474.668,32L314.668,32Z" style="fill:white;fill-rule:nonzero;"/>
</svg>
