<?xml version="1.0" encoding="UTF-8" standalone="no"?><!DOCTYPE svg PUBLIC "-//W3C//DTD SVG 1.1//EN" "http://www.w3.org/Graphics/SVG/1.1/DTD/svg11.dtd"><svg width="100%" height="100%" viewBox="0 0 1040 1155" version="1.1" xmlns="http://www.w3.org/2000/svg" xmlns:xlink="http://www.w3.org/1999/xlink" xml:space="preserve" xmlns:serif="http://www.serif.com/" style="fill-rule:evenodd;clip-rule:evenodd;stroke-linecap:round;stroke-linejoin:round;stroke-miterlimit:1.5;"><g><path d="M146.827,103.568l115.536,740.505c-79.33,1.434 -159.583,27.996 -212.45,84.548c-36.478,35.812 -51.152,86.071 -27.471,156.381c26.014,49.973 77.091,70.701 162.747,53.676c121.213,-34.881 186.297,-100.049 187.517,-199.677l-96.487,-578.907c102.624,26.376 194.736,67.513 257.238,150.229c26.691,34.608 38.471,90.365 33.874,169.35c20.102,-13.67 37.261,-63.93 50.703,-144.122c3.834,-64.079 -10.365,-112.309 -38.294,-148.472c-52.387,-53.852 -127.84,-99.479 -216.383,-140.438c-68.049,-40.592 -111.733,-94.943 -136.851,-156.22l-79.679,13.147Z" style="fill:none;stroke:#93212e;stroke-width:20px;"/><path d="M353.461,57.342l115.536,740.505c-79.33,1.434 -159.583,27.996 -212.45,84.548c-36.478,35.812 -51.151,86.071 -27.471,156.381c26.014,49.973 77.092,70.701 162.748,53.676c121.213,-34.881 186.296,-100.049 187.516,-199.677l-96.486,-578.907c102.623,26.376 194.735,67.514 257.237,150.229c26.691,34.608 38.471,90.365 33.874,169.35c20.102,-13.67 37.262,-63.93 50.703,-144.122c3.834,-64.079 -10.365,-112.309 -38.294,-148.472c-52.387,-53.852 -127.84,-99.479 -216.382,-140.438c-68.05,-40.592 -111.734,-94.943 -136.852,-156.22l-79.679,13.147Z" style="fill:none;stroke:#82c09a;stroke-width:20px;"/><path d="M557.443,23.166l115.536,740.504c-79.329,1.435 -159.582,27.996 -212.45,84.548c-36.477,35.813 -51.151,86.071 -27.47,156.381c26.013,49.973 77.091,70.701 162.747,53.676c121.213,-34.881 186.297,-100.049 187.517,-199.677l-96.487,-578.907c102.624,26.377 194.735,67.514 257.237,150.23c26.691,34.608 38.471,90.364 33.875,169.349c20.102,-13.669 37.261,-63.93 50.703,-144.121c3.833,-64.08 -10.366,-112.31 -38.294,-148.473c-52.387,-53.852 -127.84,-99.478 -216.383,-140.438c-68.05,-40.592 -111.734,-94.942 -136.852,-156.219l-79.679,13.147Z" style="fill:none;stroke:#398ee3;stroke-width:20px;"/></g></svg>